<svg xmlns="http://www.w3.org/2000/svg" id="katman_1" data-name="katman 1" viewBox="0 0 262.64 262.64"><defs><style>.cls-1{fill:#00adc1}</style></defs><path d="M224.16 92.86v-54.4h-54.38L131.31 0 92.86 38.45h-54.4v54.4L0 131.31l38.45 38.48v54.38h54.4l38.45 38.48 38.45-38.48h54.4v-54.38l38.48-38.48-38.48-38.45Zm-28.02 65.32v37.97h-37.97l-26.87 26.87-26.84-26.87H66.47v-37.97l-26.84-26.87 26.84-26.84V66.48h37.99l26.84-26.84 26.87 26.87h37.97v37.97l26.87 26.84-26.87 26.87Z" class="cls-1"/><path d="m186.47 131.31-16.15 16.16v22.85h-22.85l-16.16 16.15-16.16-16.15H92.32v-22.85l-16.15-16.16 16.15-16.16V92.32h22.83l16.16-16.15 16.16 16.15h22.85v22.83l16.15 16.16z" class="cls-1"/></svg>